<mxfile host="app.diagrams.net" modified="2022-11-03T09:25:27.423Z" agent="5.0 (Windows NT 10.0; Win64; x64) AppleWebKit/537.36 (KHTML, like Gecko) Chrome/107.0.0.0 Safari/537.36 Edg/107.0.1418.26" etag="ktGojLjyBf3Cn-yLO-cW" version="20.5.1" type="github">
  <diagram id="prtHgNgQTEPvFCAcTncT" name="Page-1">
    <mxGraphModel dx="1221" dy="644" grid="1" gridSize="10" guides="1" tooltips="1" connect="1" arrows="1" fold="1" page="1" pageScale="1" pageWidth="827" pageHeight="1169" math="0" shadow="0">
      <root>
        <mxCell id="0" />
        <mxCell id="1" parent="0" />
        <mxCell id="dNxyNK7c78bLwvsdeMH5-11" value="Orgchart" style="swimlane;html=1;startSize=20;horizontal=1;containerType=tree;glass=0;" parent="1" vertex="1">
          <mxGeometry x="40" y="80" width="710" height="290" as="geometry">
            <mxRectangle x="40" y="80" width="90" height="30" as="alternateBounds" />
          </mxGeometry>
        </mxCell>
        <UserObject label="%name%&lt;br&gt;&lt;i style=&quot;color: gray&quot;&gt;%position%&lt;/i&gt;&lt;br&gt;&lt;a href=&quot;mailto:%email%&quot;&gt;Email&lt;/a&gt;" name="Tessa Miller" position="CFO" location="Office 1" email="me@example.com" placeholders="1" link="https://www.draw.io" id="dNxyNK7c78bLwvsdeMH5-12">
          <mxCell style="label;image=https://cdn3.iconfinder.com/data/icons/user-avatars-1/512/users-3-128.png;whiteSpace=wrap;html=1;rounded=0;glass=0;treeMoving=1;treeFolding=1;" parent="dNxyNK7c78bLwvsdeMH5-11" vertex="1">
            <mxGeometry x="260" y="50" width="180" height="70" as="geometry" />
          </mxCell>
        </UserObject>
        <mxCell id="dNxyNK7c78bLwvsdeMH5-13" value="" style="endArrow=blockThin;endFill=1;fontSize=11;edgeStyle=elbowEdgeStyle;elbow=vertical;rounded=0;" parent="dNxyNK7c78bLwvsdeMH5-11" source="dNxyNK7c78bLwvsdeMH5-12" target="dNxyNK7c78bLwvsdeMH5-14" edge="1">
          <mxGeometry relative="1" as="geometry" />
        </mxCell>
        <UserObject label="%name%&lt;br&gt;&lt;i style=&quot;color: gray&quot;&gt;%position%&lt;/i&gt;&lt;br&gt;&lt;a href=&quot;mailto:%email%&quot;&gt;Email&lt;/a&gt;" name="Edward Morrison" position="Brand Manager" location="Office 2" email="me@example.com" placeholders="1" link="https://www.draw.io" id="dNxyNK7c78bLwvsdeMH5-14">
          <mxCell style="label;image=https://cdn3.iconfinder.com/data/icons/user-avatars-1/512/users-10-3-128.png;whiteSpace=wrap;html=1;rounded=0;glass=0;treeFolding=1;treeMoving=1;" parent="dNxyNK7c78bLwvsdeMH5-11" vertex="1">
            <mxGeometry x="40" y="180" width="180" height="80" as="geometry" />
          </mxCell>
        </UserObject>
        <mxCell id="dNxyNK7c78bLwvsdeMH5-15" value="" style="endArrow=blockThin;endFill=1;fontSize=11;edgeStyle=elbowEdgeStyle;elbow=vertical;rounded=0;" parent="dNxyNK7c78bLwvsdeMH5-11" source="dNxyNK7c78bLwvsdeMH5-12" target="dNxyNK7c78bLwvsdeMH5-16" edge="1">
          <mxGeometry relative="1" as="geometry" />
        </mxCell>
        <UserObject label="%name%&lt;br&gt;&lt;i style=&quot;color: gray&quot;&gt;%position%&lt;/i&gt;&lt;br&gt;&lt;a href=&quot;mailto:%email%&quot;&gt;Email&lt;/a&gt;" name="Evan Valet" position="HR Director" location="Office 4" email="me@example.com" placeholders="1" link="https://www.draw.io" id="dNxyNK7c78bLwvsdeMH5-16">
          <mxCell style="label;image=https://cdn3.iconfinder.com/data/icons/user-avatars-1/512/users-9-2-128.png;whiteSpace=wrap;html=1;rounded=0;glass=0;treeFolding=1;treeMoving=1;" parent="dNxyNK7c78bLwvsdeMH5-11" vertex="1">
            <mxGeometry x="260" y="180" width="180" height="80" as="geometry" />
          </mxCell>
        </UserObject>
        <mxCell id="dNxyNK7c78bLwvsdeMH5-17" value="" style="endArrow=blockThin;endFill=1;fontSize=11;edgeStyle=elbowEdgeStyle;elbow=vertical;rounded=0;" parent="dNxyNK7c78bLwvsdeMH5-11" source="dNxyNK7c78bLwvsdeMH5-12" target="dNxyNK7c78bLwvsdeMH5-18" edge="1">
          <mxGeometry relative="1" as="geometry" />
        </mxCell>
        <UserObject label="%name%&lt;br&gt;&lt;i style=&quot;color: gray&quot;&gt;%position%&lt;/i&gt;&lt;br&gt;&lt;a href=&quot;mailto:%email%&quot;&gt;Email&lt;/a&gt;" name="Alison Donovan" position="System Admin" location="Office 3" email="me@example.com" placeholders="1" link="https://www.draw.io" id="dNxyNK7c78bLwvsdeMH5-18">
          <mxCell style="label;image=https://cdn3.iconfinder.com/data/icons/user-avatars-1/512/users-2-128.png;whiteSpace=wrap;html=1;rounded=0;glass=0;" parent="dNxyNK7c78bLwvsdeMH5-11" vertex="1">
            <mxGeometry x="490" y="180" width="180" height="80" as="geometry" />
          </mxCell>
        </UserObject>
        <mxCell id="YdnGqSOYmnTD_bONCKsw-7" value="&lt;p style=&quot;margin:0px;margin-top:6px;text-align:center;&quot;&gt;&lt;b&gt;UI&lt;/b&gt;&lt;/p&gt;&lt;hr&gt;&lt;p style=&quot;margin:0px;margin-left:8px;&quot;&gt;&lt;br&gt;&lt;/p&gt;" style="align=left;overflow=fill;html=1;dropTarget=0;" vertex="1" parent="1">
          <mxGeometry x="161" y="590" width="180" height="90" as="geometry" />
        </mxCell>
        <mxCell id="YdnGqSOYmnTD_bONCKsw-8" value="" style="shape=component;jettyWidth=8;jettyHeight=4;" vertex="1" parent="YdnGqSOYmnTD_bONCKsw-7">
          <mxGeometry x="1" width="20" height="20" relative="1" as="geometry">
            <mxPoint x="-24" y="4" as="offset" />
          </mxGeometry>
        </mxCell>
        <mxCell id="YdnGqSOYmnTD_bONCKsw-9" value="&lt;p style=&quot;margin:0px;margin-top:6px;text-align:center;&quot;&gt;&lt;b&gt;Shell&lt;/b&gt;&lt;/p&gt;&lt;hr&gt;&lt;p style=&quot;margin:0px;margin-left:8px;&quot;&gt;the main loop of whole program&lt;/p&gt;" style="align=left;overflow=fill;html=1;dropTarget=0;" vertex="1" parent="1">
          <mxGeometry x="90" y="760" width="322" height="240" as="geometry" />
        </mxCell>
        <mxCell id="YdnGqSOYmnTD_bONCKsw-10" value="" style="shape=component;jettyWidth=8;jettyHeight=4;" vertex="1" parent="YdnGqSOYmnTD_bONCKsw-9">
          <mxGeometry x="1" width="20" height="20" relative="1" as="geometry">
            <mxPoint x="-24" y="4" as="offset" />
          </mxGeometry>
        </mxCell>
        <mxCell id="YdnGqSOYmnTD_bONCKsw-11" value="&lt;p style=&quot;margin:0px;margin-top:6px;text-align:center;&quot;&gt;&lt;b&gt;Login&lt;/b&gt;&lt;/p&gt;&lt;hr&gt;&lt;p style=&quot;margin:0px;margin-left:8px;&quot;&gt;&lt;br&gt;&lt;/p&gt;" style="align=left;overflow=fill;html=1;dropTarget=0;" vertex="1" parent="1">
          <mxGeometry x="540" y="760" width="176" height="90" as="geometry" />
        </mxCell>
        <mxCell id="YdnGqSOYmnTD_bONCKsw-12" value="" style="shape=component;jettyWidth=8;jettyHeight=4;" vertex="1" parent="YdnGqSOYmnTD_bONCKsw-11">
          <mxGeometry x="1" width="20" height="20" relative="1" as="geometry">
            <mxPoint x="-24" y="4" as="offset" />
          </mxGeometry>
        </mxCell>
        <mxCell id="YdnGqSOYmnTD_bONCKsw-19" value="" style="rounded=0;orthogonalLoop=1;jettySize=auto;html=1;endArrow=none;endFill=0;sketch=0;sourcePerimeterSpacing=0;targetPerimeterSpacing=0;exitX=1;exitY=0.25;exitDx=0;exitDy=0;" edge="1" target="YdnGqSOYmnTD_bONCKsw-21" parent="1" source="YdnGqSOYmnTD_bONCKsw-9">
          <mxGeometry relative="1" as="geometry">
            <mxPoint x="450" y="815" as="sourcePoint" />
          </mxGeometry>
        </mxCell>
        <mxCell id="YdnGqSOYmnTD_bONCKsw-20" value="" style="rounded=0;orthogonalLoop=1;jettySize=auto;html=1;endArrow=halfCircle;endFill=0;entryX=0.5;entryY=0.5;endSize=6;strokeWidth=1;sketch=0;exitX=0;exitY=0.75;exitDx=0;exitDy=0;" edge="1" target="YdnGqSOYmnTD_bONCKsw-21" parent="1" source="YdnGqSOYmnTD_bONCKsw-11">
          <mxGeometry relative="1" as="geometry">
            <mxPoint x="490" y="815" as="sourcePoint" />
          </mxGeometry>
        </mxCell>
        <mxCell id="YdnGqSOYmnTD_bONCKsw-21" value="" style="ellipse;whiteSpace=wrap;html=1;align=center;aspect=fixed;resizable=0;points=[];outlineConnect=0;sketch=0;" vertex="1" parent="1">
          <mxGeometry x="470" y="820" width="10" height="10" as="geometry" />
        </mxCell>
        <mxCell id="YdnGqSOYmnTD_bONCKsw-22" value="" style="rounded=0;orthogonalLoop=1;jettySize=auto;html=1;endArrow=none;endFill=0;sketch=0;sourcePerimeterSpacing=0;targetPerimeterSpacing=0;exitX=0.5;exitY=1;exitDx=0;exitDy=0;" edge="1" target="YdnGqSOYmnTD_bONCKsw-24" parent="1" source="YdnGqSOYmnTD_bONCKsw-7">
          <mxGeometry relative="1" as="geometry">
            <mxPoint x="227" y="715" as="sourcePoint" />
          </mxGeometry>
        </mxCell>
        <mxCell id="YdnGqSOYmnTD_bONCKsw-23" value="" style="rounded=0;orthogonalLoop=1;jettySize=auto;html=1;endArrow=halfCircle;endFill=0;entryX=0.5;entryY=0.5;endSize=6;strokeWidth=1;sketch=0;exitX=0.5;exitY=0;exitDx=0;exitDy=0;" edge="1" target="YdnGqSOYmnTD_bONCKsw-24" parent="1" source="YdnGqSOYmnTD_bONCKsw-9">
          <mxGeometry relative="1" as="geometry">
            <mxPoint x="340" y="725" as="sourcePoint" />
          </mxGeometry>
        </mxCell>
        <mxCell id="YdnGqSOYmnTD_bONCKsw-24" value="" style="ellipse;whiteSpace=wrap;html=1;align=center;aspect=fixed;resizable=0;points=[];outlineConnect=0;sketch=0;" vertex="1" parent="1">
          <mxGeometry x="246" y="710" width="10" height="10" as="geometry" />
        </mxCell>
        <mxCell id="YdnGqSOYmnTD_bONCKsw-25" value="&lt;p style=&quot;margin:0px;margin-top:6px;text-align:center;&quot;&gt;&lt;b&gt;Function_Handler&lt;/b&gt;&lt;/p&gt;&lt;hr&gt;&lt;p style=&quot;margin:0px;margin-left:8px;&quot;&gt;&lt;br&gt;&lt;/p&gt;" style="align=left;overflow=fill;html=1;dropTarget=0;" vertex="1" parent="1">
          <mxGeometry x="143" y="880" width="176" height="90" as="geometry" />
        </mxCell>
        <mxCell id="YdnGqSOYmnTD_bONCKsw-26" value="" style="shape=component;jettyWidth=8;jettyHeight=4;" vertex="1" parent="YdnGqSOYmnTD_bONCKsw-25">
          <mxGeometry x="1" width="20" height="20" relative="1" as="geometry">
            <mxPoint x="-24" y="4" as="offset" />
          </mxGeometry>
        </mxCell>
        <mxCell id="YdnGqSOYmnTD_bONCKsw-27" value="&lt;p style=&quot;margin:0px;margin-top:4px;text-align:center;&quot;&gt;&lt;br&gt;&lt;/p&gt;" style="verticalAlign=top;align=left;overflow=fill;fontSize=12;fontFamily=Helvetica;html=1;" vertex="1" parent="1">
          <mxGeometry x="279" y="930" width="161" height="30" as="geometry" />
        </mxCell>
        <mxCell id="YdnGqSOYmnTD_bONCKsw-28" value="&lt;p style=&quot;margin:0px;margin-top:6px;text-align:center;&quot;&gt;&lt;b&gt;Query&lt;/b&gt;&lt;/p&gt;&lt;hr&gt;&lt;p style=&quot;margin:0px;margin-left:8px;&quot;&gt;&lt;br&gt;&lt;/p&gt;" style="align=left;overflow=fill;html=1;dropTarget=0;" vertex="1" parent="1">
          <mxGeometry x="550" y="890" width="160" height="100" as="geometry" />
        </mxCell>
        <mxCell id="YdnGqSOYmnTD_bONCKsw-29" value="" style="shape=component;jettyWidth=8;jettyHeight=4;" vertex="1" parent="YdnGqSOYmnTD_bONCKsw-28">
          <mxGeometry x="1" width="20" height="20" relative="1" as="geometry">
            <mxPoint x="-24" y="4" as="offset" />
          </mxGeometry>
        </mxCell>
        <mxCell id="YdnGqSOYmnTD_bONCKsw-30" value="&lt;p style=&quot;margin:0px;margin-top:4px;text-align:center;&quot;&gt;&lt;i&gt;&amp;lt;&amp;lt;Interface&amp;gt;&amp;gt;&lt;/i&gt;&lt;br&gt;&lt;b&gt;Interface&lt;/b&gt;&lt;/p&gt;" style="verticalAlign=top;align=left;overflow=fill;fontSize=12;fontFamily=Helvetica;html=1;" vertex="1" parent="1">
          <mxGeometry x="510" y="930" width="70" height="30" as="geometry" />
        </mxCell>
        <mxCell id="YdnGqSOYmnTD_bONCKsw-34" value="" style="rounded=0;orthogonalLoop=1;jettySize=auto;html=1;endArrow=none;endFill=0;sketch=0;sourcePerimeterSpacing=0;targetPerimeterSpacing=0;exitX=1;exitY=0.5;exitDx=0;exitDy=0;" edge="1" target="YdnGqSOYmnTD_bONCKsw-36" parent="1" source="YdnGqSOYmnTD_bONCKsw-27">
          <mxGeometry relative="1" as="geometry">
            <mxPoint x="455" y="945" as="sourcePoint" />
          </mxGeometry>
        </mxCell>
        <mxCell id="YdnGqSOYmnTD_bONCKsw-35" value="" style="rounded=0;orthogonalLoop=1;jettySize=auto;html=1;endArrow=halfCircle;endFill=0;entryX=0.5;entryY=0.5;endSize=6;strokeWidth=1;sketch=0;exitX=0;exitY=0.5;exitDx=0;exitDy=0;" edge="1" target="YdnGqSOYmnTD_bONCKsw-36" parent="1" source="YdnGqSOYmnTD_bONCKsw-30">
          <mxGeometry relative="1" as="geometry">
            <mxPoint x="495" y="945" as="sourcePoint" />
          </mxGeometry>
        </mxCell>
        <mxCell id="YdnGqSOYmnTD_bONCKsw-36" value="" style="ellipse;whiteSpace=wrap;html=1;align=center;aspect=fixed;resizable=0;points=[];outlineConnect=0;sketch=0;" vertex="1" parent="1">
          <mxGeometry x="470" y="940" width="10" height="10" as="geometry" />
        </mxCell>
        <mxCell id="YdnGqSOYmnTD_bONCKsw-39" value="DB" style="shape=datastore;whiteSpace=wrap;html=1;" vertex="1" parent="1">
          <mxGeometry x="601" y="1045" width="60" height="60" as="geometry" />
        </mxCell>
        <mxCell id="YdnGqSOYmnTD_bONCKsw-43" style="edgeStyle=orthogonalEdgeStyle;rounded=0;orthogonalLoop=1;jettySize=auto;html=1;entryX=0.5;entryY=0;entryDx=0;entryDy=0;" edge="1" parent="1" source="YdnGqSOYmnTD_bONCKsw-40" target="YdnGqSOYmnTD_bONCKsw-39">
          <mxGeometry relative="1" as="geometry" />
        </mxCell>
        <mxCell id="YdnGqSOYmnTD_bONCKsw-40" value="&lt;p style=&quot;margin:0px;margin-top:4px;text-align:center;&quot;&gt;&lt;br&gt;&lt;/p&gt;" style="verticalAlign=top;align=left;overflow=fill;fontSize=12;fontFamily=Helvetica;html=1;rotation=90;" vertex="1" parent="1">
          <mxGeometry x="616" y="980" width="30" height="20" as="geometry" />
        </mxCell>
        <mxCell id="YdnGqSOYmnTD_bONCKsw-48" value="" style="rounded=0;orthogonalLoop=1;jettySize=auto;html=1;endArrow=none;endFill=0;sketch=0;sourcePerimeterSpacing=0;targetPerimeterSpacing=0;exitX=0.5;exitY=1;exitDx=0;exitDy=0;" edge="1" target="YdnGqSOYmnTD_bONCKsw-50" parent="1" source="YdnGqSOYmnTD_bONCKsw-11">
          <mxGeometry relative="1" as="geometry">
            <mxPoint x="611" y="875" as="sourcePoint" />
          </mxGeometry>
        </mxCell>
        <mxCell id="YdnGqSOYmnTD_bONCKsw-49" value="" style="rounded=0;orthogonalLoop=1;jettySize=auto;html=1;endArrow=halfCircle;endFill=0;entryX=0.5;entryY=0.5;endSize=6;strokeWidth=1;sketch=0;exitX=0.5;exitY=0;exitDx=0;exitDy=0;" edge="1" target="YdnGqSOYmnTD_bONCKsw-50" parent="1" source="YdnGqSOYmnTD_bONCKsw-28">
          <mxGeometry relative="1" as="geometry">
            <mxPoint x="651" y="875" as="sourcePoint" />
          </mxGeometry>
        </mxCell>
        <mxCell id="YdnGqSOYmnTD_bONCKsw-50" value="" style="ellipse;whiteSpace=wrap;html=1;align=center;aspect=fixed;resizable=0;points=[];outlineConnect=0;sketch=0;" vertex="1" parent="1">
          <mxGeometry x="623" y="870" width="10" height="10" as="geometry" />
        </mxCell>
        <mxCell id="YdnGqSOYmnTD_bONCKsw-51" value="&lt;p style=&quot;margin:0px;margin-top:6px;text-align:center;&quot;&gt;&lt;b&gt;Managerment&lt;/b&gt;&lt;/p&gt;&lt;hr&gt;&lt;p style=&quot;margin:0px;margin-left:8px;&quot;&gt;&lt;br&gt;&lt;/p&gt;" style="align=left;overflow=fill;html=1;dropTarget=0;" vertex="1" parent="1">
          <mxGeometry x="360" y="1025" width="160" height="100" as="geometry" />
        </mxCell>
        <mxCell id="YdnGqSOYmnTD_bONCKsw-52" value="" style="shape=component;jettyWidth=8;jettyHeight=4;" vertex="1" parent="YdnGqSOYmnTD_bONCKsw-51">
          <mxGeometry x="1" width="20" height="20" relative="1" as="geometry">
            <mxPoint x="-24" y="4" as="offset" />
          </mxGeometry>
        </mxCell>
        <mxCell id="YdnGqSOYmnTD_bONCKsw-53" value="&lt;p style=&quot;margin:0px;margin-top:4px;text-align:center;&quot;&gt;&lt;i&gt;&amp;lt;&amp;lt;Interface&amp;gt;&amp;gt;&lt;/i&gt;&lt;br&gt;&lt;b&gt;Interface&lt;/b&gt;&lt;/p&gt;" style="verticalAlign=top;align=left;overflow=fill;fontSize=12;fontFamily=Helvetica;html=1;" vertex="1" parent="1">
          <mxGeometry x="320" y="1065" width="70" height="30" as="geometry" />
        </mxCell>
        <mxCell id="YdnGqSOYmnTD_bONCKsw-54" value="" style="rounded=0;orthogonalLoop=1;jettySize=auto;html=1;endArrow=none;endFill=0;sketch=0;sourcePerimeterSpacing=0;targetPerimeterSpacing=0;exitX=0.75;exitY=0;exitDx=0;exitDy=0;" edge="1" parent="1" target="YdnGqSOYmnTD_bONCKsw-56" source="YdnGqSOYmnTD_bONCKsw-61">
          <mxGeometry relative="1" as="geometry">
            <mxPoint x="280" y="1030" as="sourcePoint" />
          </mxGeometry>
        </mxCell>
        <mxCell id="YdnGqSOYmnTD_bONCKsw-55" value="" style="rounded=0;orthogonalLoop=1;jettySize=auto;html=1;endArrow=halfCircle;endFill=0;entryX=0.5;entryY=0.5;endSize=6;strokeWidth=1;sketch=0;exitX=0;exitY=0.5;exitDx=0;exitDy=0;" edge="1" parent="1" source="YdnGqSOYmnTD_bONCKsw-53" target="YdnGqSOYmnTD_bONCKsw-56">
          <mxGeometry relative="1" as="geometry">
            <mxPoint x="305" y="1080" as="sourcePoint" />
          </mxGeometry>
        </mxCell>
        <mxCell id="YdnGqSOYmnTD_bONCKsw-56" value="" style="ellipse;whiteSpace=wrap;html=1;align=center;aspect=fixed;resizable=0;points=[];outlineConnect=0;sketch=0;" vertex="1" parent="1">
          <mxGeometry x="280" y="1075" width="10" height="10" as="geometry" />
        </mxCell>
        <mxCell id="YdnGqSOYmnTD_bONCKsw-62" style="edgeStyle=orthogonalEdgeStyle;rounded=0;orthogonalLoop=1;jettySize=auto;html=1;entryX=0;entryY=0.7;entryDx=0;entryDy=0;" edge="1" parent="1" source="YdnGqSOYmnTD_bONCKsw-59" target="YdnGqSOYmnTD_bONCKsw-39">
          <mxGeometry relative="1" as="geometry">
            <Array as="points">
              <mxPoint x="601" y="1082" />
            </Array>
          </mxGeometry>
        </mxCell>
        <mxCell id="YdnGqSOYmnTD_bONCKsw-59" value="&lt;p style=&quot;margin:0px;margin-top:4px;text-align:center;&quot;&gt;&lt;br&gt;&lt;/p&gt;" style="verticalAlign=top;align=left;overflow=fill;fontSize=12;fontFamily=Helvetica;html=1;rotation=90;" vertex="1" parent="1">
          <mxGeometry x="520" y="1075" width="10" height="15" as="geometry" />
        </mxCell>
        <mxCell id="YdnGqSOYmnTD_bONCKsw-61" value="&lt;p style=&quot;margin:0px;margin-top:4px;text-align:center;&quot;&gt;&lt;br&gt;&lt;/p&gt;" style="verticalAlign=top;align=left;overflow=fill;fontSize=12;fontFamily=Helvetica;html=1;rotation=-180;" vertex="1" parent="1">
          <mxGeometry x="280" y="970" width="10" height="40" as="geometry" />
        </mxCell>
        <mxCell id="YdnGqSOYmnTD_bONCKsw-63" value="UI&amp;nbsp; encapsulation" style="text;html=1;align=center;verticalAlign=middle;resizable=0;points=[];autosize=1;strokeColor=none;fillColor=none;" vertex="1" parent="1">
          <mxGeometry x="256" y="710" width="120" height="30" as="geometry" />
        </mxCell>
        <mxCell id="YdnGqSOYmnTD_bONCKsw-65" style="edgeStyle=orthogonalEdgeStyle;rounded=0;orthogonalLoop=1;jettySize=auto;html=1;" edge="1" parent="1" source="YdnGqSOYmnTD_bONCKsw-64" target="YdnGqSOYmnTD_bONCKsw-21">
          <mxGeometry relative="1" as="geometry" />
        </mxCell>
        <mxCell id="YdnGqSOYmnTD_bONCKsw-64" value="will using this function to &lt;br&gt;determine identification" style="text;html=1;align=center;verticalAlign=middle;resizable=0;points=[];autosize=1;strokeColor=none;fillColor=none;" vertex="1" parent="1">
          <mxGeometry x="400" y="710" width="150" height="40" as="geometry" />
        </mxCell>
        <mxCell id="YdnGqSOYmnTD_bONCKsw-66" value="will search and map the user and &lt;br&gt;it&#39;s passwd in database" style="text;html=1;align=center;verticalAlign=middle;resizable=0;points=[];autosize=1;strokeColor=none;fillColor=none;" vertex="1" parent="1">
          <mxGeometry x="646" y="850" width="200" height="40" as="geometry" />
        </mxCell>
        <mxCell id="YdnGqSOYmnTD_bONCKsw-67" value="use search function" style="text;html=1;align=center;verticalAlign=middle;resizable=0;points=[];autosize=1;strokeColor=none;fillColor=none;" vertex="1" parent="1">
          <mxGeometry x="410" y="890" width="130" height="30" as="geometry" />
        </mxCell>
        <mxCell id="YdnGqSOYmnTD_bONCKsw-68" value="use manager function" style="text;html=1;align=center;verticalAlign=middle;resizable=0;points=[];autosize=1;strokeColor=none;fillColor=none;" vertex="1" parent="1">
          <mxGeometry x="138" y="1010" width="140" height="30" as="geometry" />
        </mxCell>
      </root>
    </mxGraphModel>
  </diagram>
</mxfile>
